<svg width="180" height="180" xmlns="http://www.w3.org/2000/svg"><g fill="none" fill-rule="evenodd"><circle fill="#CCC" fill-rule="nonzero" cx="90" cy="90" r="90"/><path d="M114.22 59.892c0 13.17-10.537 37.326-23.708 37.326-13.17 0-23.707-24.34-23.707-37.326 0-13.093 10.614-23.708 23.707-23.708S114.22 46.8 114.22 59.892zm13.17 65.116a18.755 18.755 0 0 0-1.449-8.825 14.172 14.172 0 0 0-6.005-6.032l-11.775-6.427a35.482 35.482 0 0 1-3.609-2.028 7.718 7.718 0 0 1-2.634-7.165c-.09-1.131-.09-2.267 0-3.398a16.042 16.042 0 0 1-11.406 6.085 16.042 16.042 0 0 1-11.38-6.085c.09 1.13.09 2.267 0 3.398a7.718 7.718 0 0 1-2.633 7.165 35.482 35.482 0 0 1-3.61 2.028l-11.774 6.427a14.172 14.172 0 0 0-6.006 6.032 18.755 18.755 0 0 0-1.475 8.825v2.634c.132 2.028 1.818 2.871 3.372 3.872a67.487 67.487 0 0 0 11.906 6.111 59.874 59.874 0 0 0 43.148 0 67.487 67.487 0 0 0 11.906-6.11c1.554-.975 3.24-1.845 3.372-3.873.052-.948.052-1.818.052-2.634z" stroke="#FFF" stroke-width="6"/></g></svg>